<svg width="140" height="140" viewBox="0 0 140 140" fill="none" xmlns="http://www.w3.org/2000/svg">
<rect x="22" y="22" width="96" height="96" rx="48" stroke="#2F5241" stroke-width="4"/>
<path fill-rule="evenodd" clip-rule="evenodd" d="M93.125 61.25C93.125 57.74 93.125 55.9825 92.2825 54.7225C91.9176 54.1763 91.4487 53.7074 90.9025 53.3425C89.8 52.605 88.3175 52.5125 85.615 52.5025C85.6233 53.2325 85.6267 53.9908 85.625 54.7775V58.125H88.125C88.6223 58.125 89.0992 58.3225 89.4508 58.6742C89.8025 59.0258 90 59.5027 90 60C90 60.4973 89.8025 60.9742 89.4508 61.3258C89.0992 61.6775 88.6223 61.875 88.125 61.875H85.625V65.625H88.125C88.6223 65.625 89.0992 65.8225 89.4508 66.1742C89.8025 66.5258 90 67.0027 90 67.5C90 67.9973 89.8025 68.4742 89.4508 68.8258C89.0992 69.1775 88.6223 69.375 88.125 69.375H85.625V73.125H88.125C88.6223 73.125 89.0992 73.3225 89.4508 73.6742C89.8025 74.0258 90 74.5027 90 75C90 75.4973 89.8025 75.9742 89.4508 76.3258C89.0992 76.6775 88.6223 76.875 88.125 76.875H85.625V93.125H81.875V55C81.875 50.285 81.875 47.93 80.41 46.465C78.945 45 76.59 45 71.875 45H66.875C62.16 45 59.805 45 58.34 46.465C56.875 47.93 56.875 50.285 56.875 55V93.125H53.125V76.875H50.625C50.1277 76.875 49.6508 76.6775 49.2992 76.3258C48.9475 75.9742 48.75 75.4973 48.75 75C48.75 74.5027 48.9475 74.0258 49.2992 73.6742C49.6508 73.3225 50.1277 73.125 50.625 73.125H53.125V69.375H50.625C50.1277 69.375 49.6508 69.1775 49.2992 68.8258C48.9475 68.4742 48.75 67.9973 48.75 67.5C48.75 67.0027 48.9475 66.5258 49.2992 66.1742C49.6508 65.8225 50.1277 65.625 50.625 65.625H53.125V61.875H50.625C50.1277 61.875 49.6508 61.6775 49.2992 61.3258C48.9475 60.9742 48.75 60.4973 48.75 60C48.75 59.5027 48.9475 59.0258 49.2992 58.6742C49.6508 58.3225 50.1277 58.125 50.625 58.125H53.125V54.775C53.1233 53.9917 53.1267 53.2333 53.135 52.5C50.4325 52.5125 48.95 52.605 47.8475 53.3425C47.3013 53.7074 46.8324 54.1763 46.4675 54.7225C45.625 55.9825 45.625 57.74 45.625 61.25V93.125H44.375C43.8777 93.125 43.4008 93.3225 43.0492 93.6742C42.6975 94.0258 42.5 94.5027 42.5 95C42.5 95.4973 42.6975 95.9742 43.0492 96.3258C43.4008 96.6775 43.8777 96.875 44.375 96.875H94.375C94.8723 96.875 95.3492 96.6775 95.7008 96.3258C96.0525 95.9742 96.25 95.4973 96.25 95C96.25 94.5027 96.0525 94.0258 95.7008 93.6742C95.3492 93.3225 94.8723 93.125 94.375 93.125H93.125V61.25ZM69.375 50.625C69.8723 50.625 70.3492 50.8225 70.7008 51.1742C71.0525 51.5258 71.25 52.0027 71.25 52.5V55.625H74.375C74.8723 55.625 75.3492 55.8225 75.7008 56.1742C76.0525 56.5258 76.25 57.0027 76.25 57.5C76.25 57.9973 76.0525 58.4742 75.7008 58.8258C75.3492 59.1775 74.8723 59.375 74.375 59.375H71.25V62.5C71.25 62.9973 71.0525 63.4742 70.7008 63.8258C70.3492 64.1775 69.8723 64.375 69.375 64.375C68.8777 64.375 68.4008 64.1775 68.0492 63.8258C67.6975 63.4742 67.5 62.9973 67.5 62.5V59.375H64.375C63.8777 59.375 63.4008 59.1775 63.0492 58.8258C62.6975 58.4742 62.5 57.9973 62.5 57.5C62.5 57.0027 62.6975 56.5258 63.0492 56.1742C63.4008 55.8225 63.8777 55.625 64.375 55.625H67.5V52.5C67.5 52.0027 67.6975 51.5258 68.0492 51.1742C68.4008 50.8225 68.8777 50.625 69.375 50.625ZM62.5 70C62.5 69.5027 62.6975 69.0258 63.0492 68.6742C63.4008 68.3225 63.8777 68.125 64.375 68.125H74.375C74.8723 68.125 75.3492 68.3225 75.7008 68.6742C76.0525 69.0258 76.25 69.5027 76.25 70C76.25 70.4973 76.0525 70.9742 75.7008 71.3258C75.3492 71.6775 74.8723 71.875 74.375 71.875H64.375C63.8777 71.875 63.4008 71.6775 63.0492 71.3258C62.6975 70.9742 62.5 70.4973 62.5 70ZM62.5 77.5C62.5 77.0027 62.6975 76.5258 63.0492 76.1742C63.4008 75.8225 63.8777 75.625 64.375 75.625H74.375C74.8723 75.625 75.3492 75.8225 75.7008 76.1742C76.0525 76.5258 76.25 77.0027 76.25 77.5C76.25 77.9973 76.0525 78.4742 75.7008 78.8258C75.3492 79.1775 74.8723 79.375 74.375 79.375H64.375C63.8777 79.375 63.4008 79.1775 63.0492 78.8258C62.6975 78.4742 62.5 77.9973 62.5 77.5ZM69.375 85.625C69.8723 85.625 70.3492 85.8225 70.7008 86.1742C71.0525 86.5258 71.25 87.0027 71.25 87.5V93.125H67.5V87.5C67.5 87.0027 67.6975 86.5258 68.0492 86.1742C68.4008 85.8225 68.8777 85.625 69.375 85.625Z" fill="#2F5241"/>
</svg>
