<svg width="140" height="140" viewBox="0 0 140 140" fill="none" xmlns="http://www.w3.org/2000/svg">
<rect x="22" y="22" width="96" height="96" rx="48" stroke="#2F5241" stroke-width="4"/>
<path d="M87.5 47.5H52.5C49.725 47.5 47.5 49.725 47.5 52.5V87.5C47.5 90.275 49.725 92.5 52.5 92.5H87.5C90.275 92.5 92.5 90.275 92.5 87.5V52.5C92.5 49.725 90.275 47.5 87.5 47.5ZM82.75 72.5H72.5V75H82.5C82.5 75 82.35 82.5 78.75 82.5C75.375 82.5 76.25 78.675 72.5 77.5V82.5C72.5 83.875 71.375 85 70 85C68.625 85 67.5 83.875 67.5 82.5V77.5C63.75 78.675 64.625 82.5 61.25 82.5C57.65 82.5 57.5 75 57.5 75H67.5V72.5H57.25C57.125 71.725 57.1 70.875 57 70H67.5V67.5H57.025C57.075 66.675 57.275 65.825 57.5 65H67.5V62.5H58.35C58.75 61.625 59.125 60.775 59.575 60H67.5V57.5C67.5 56.125 68.625 55 70 55C71.375 55 72.5 56.125 72.5 57.5V60H80.425C80.875 60.775 81.25 61.625 81.65 62.5H72.5V65H82.5C82.75 65.825 82.925 66.675 82.975 67.5H72.5V70H83C82.9 70.875 82.875 71.725 82.75 72.5Z" fill="#2F5241"/>
</svg>
